<svg id="Capa_1" enable-background="new 0 0 512 512" height="512" viewBox="0 0 512 512" width="512" xmlns="http://www.w3.org/2000/svg"><g><g><path d="m168 509.998c-15.837 0-31.067-4.688-44-13.392-12.933 8.703-28.163 13.392-44 13.392-22.15 0-43.57-9.341-58.767-25.628-15.082-16.165-22.555-37.091-21.041-58.924 1.291-18.625 9.32-36.26 22.607-49.656 13.136-13.244 30.608-21.552 49.197-23.395 15.775-1.562 31.413 1.521 45.227 8.921 4.236 2.271 9.342 2.249 13.659-.056 12.432-6.637 26.5-9.803 40.688-9.184 19.628.87 38.162 9.056 52.186 23.048 14.025 13.995 22.25 32.511 23.158 52.138 1.01 21.824-6.721 42.522-21.769 58.283-15.055 15.769-35.349 24.453-57.145 24.453z" fill="#79b83b"/></g><g><g><path d="m432 511c-43.561 0-79-35.439-79-79s35.439-79 79-79c21.103 0 41.079 8.178 56.248 23.025 15.317 14.994 23.752 34.873 23.752 55.975s-8.436 40.981-23.752 55.975c-15.169 14.847-35.145 23.025-56.248 23.025z" fill="#468c4d"/></g></g><g><path d="m313.48 117.79c-16.28-35.03-43.64-76.79-81.48-76.79s-65.2 41.76-81.48 76.79c-17.66 37.98-29.52 83.88-29.52 114.21 0 61.21 49.79 111 111 111s111-49.79 111-111c0-30.33-11.86-76.23-29.52-114.21z" fill="#bbe149"/></g><path d="m343 232c0 61.21-49.79 111-111 111v-302c37.84 0 65.2 41.76 81.48 76.79 17.66 37.98 29.52 83.88 29.52 114.21z" fill="#79b83b"/><g><path d="m247 248v168c0 8.28-6.72 15-15 15s-15-6.72-15-15v-168c0-8.28 6.72-15 15-15s15 6.72 15 15z" fill="#b07c52"/></g><g><path d="m247 248v168c0 8.28-6.72 15-15 15v-198c8.28 0 15 6.72 15 15z" fill="#805834"/></g><g><path d="m96 327c-47.972 0-87-39.028-87-87 0-23.354 9.309-63.903 22.135-96.416 18.476-46.836 40.3-70.584 64.865-70.584s46.39 23.748 64.865 70.584c12.826 32.513 22.135 73.062 22.135 96.416 0 47.972-39.028 87-87 87z" fill="#79b83b"/></g><g><path d="m96 447c-8.284 0-15-6.716-15-15v-184c0-8.284 6.716-15 15-15s15 6.716 15 15v184c0 8.284-6.716 15-15 15z" fill="#b07c52"/></g><g><path d="m430.57 431.24c-16.82-5.11-35.51-9.4-55.57-12.811-9.7-1.649-19.72-3.09-30-4.319-28.11-3.351-58.18-5.11-89-5.11-8.06 0-16.07.12-24 .36-56.46 1.689-109.21 9.31-150.57 21.88-53.27 16.19-81.43 38.93-81.43 65.76 0 8.28 6.72 15 15 15h330s18.09-14.15 30 0h122c8.28 0 15-6.72 15-15 0-26.83-28.16-49.57-81.43-65.76z" fill="#bbe149"/></g><path d="m512 497c0 8.28-6.72 15-15 15h-122c-11.91-14.15-30 0-30 0h-113v-102.64c7.93-.24 15.94-.36 24-.36 30.82 0 60.89 1.76 89 5.11 10.28 1.229 20.3 2.67 30 4.319 20.06 3.41 38.75 7.7 55.57 12.811 53.27 16.19 81.43 38.93 81.43 65.76z" fill="#79b83b"/><g><path d="m360 455c-47.972 0-87-39.028-87-87 0-23.354 9.309-63.903 22.135-96.416 18.476-46.836 40.3-70.584 64.865-70.584s46.39 23.748 64.865 70.584c12.826 32.513 22.135 73.062 22.135 96.416 0 47.972-39.028 87-87 87z" fill="#56995e"/></g><g><path d="m375 376v136h-30v-136c0-8.28 6.72-15 15-15s15 6.72 15 15z" fill="#805834"/></g><g><path d="m432 160c-44.112 0-80-35.888-80-80s35.888-80 80-80 80 35.888 80 80-35.887 80-80 80z" fill="#eebd4c"/></g></g></svg>